M48
;GenerationSoftware,Autodesk,EAGLE,9.1.1*%
;CreationDate,2018-07-28T22:25:42Z*%
FMAT,2
ICI,OFF
METRIC,TZ,000.000
T7C0.381
T6C0.800
T5C0.813
T4C1.000
T3C1.016
T2C1.397
T1C1.778
%
G90
M71
T1
X91440Y43180
X76200Y43180
X76200Y2540
X91440Y2540
T2
X10287Y86741
X10287Y81661
X214630Y81915
X214630Y86995
T3
X95250Y15240
X95250Y12700
X95250Y10160
X95250Y7620
X95250Y5080
X72390Y5080
X72390Y7620
X72390Y10160
X72390Y12700
X72390Y15240
X72390Y17780
X72390Y20320
X72390Y22860
X72390Y25400
X72390Y27940
X72390Y30480
X72390Y33020
X27940Y2540
X33020Y2540
X38100Y2540
X43180Y2540
X48260Y2540
X53340Y2540
X22860Y5080
X27940Y5080
X33020Y5080
X38100Y5080
X43180Y5080
X48260Y5080
X53340Y5080
X22860Y2540
X20320Y2540
X25400Y2540
X30480Y2540
X35560Y2540
X40640Y2540
X45720Y2540
X50800Y2540
X55880Y2540
X20320Y5080
X25400Y5080
X30480Y5080
X35560Y5080
X40640Y5080
X45720Y5080
X50800Y5080
X55880Y5080
X48260Y10160
X43180Y10160
X38100Y10160
X33020Y10160
X27940Y10160
X22860Y10160
X53340Y7620
X48260Y7620
X43180Y7620
X38100Y7620
X33020Y7620
X27940Y7620
X22860Y7620
X53340Y10160
X55880Y10160
X50800Y10160
X45720Y10160
X40640Y10160
X35560Y10160
X30480Y10160
X25400Y10160
X20320Y10160
X55880Y7620
X50800Y7620
X45720Y7620
X40640Y7620
X35560Y7620
X30480Y7620
X25400Y7620
X20320Y7620
X27940Y12700
X33020Y12700
X38100Y12700
X43180Y12700
X48260Y12700
X53340Y12700
X22860Y15240
X27940Y15240
X33020Y15240
X38100Y15240
X43180Y15240
X48260Y15240
X53340Y15240
X22860Y12700
X20320Y12700
X25400Y12700
X30480Y12700
X35560Y12700
X40640Y12700
X45720Y12700
X50800Y12700
X55880Y12700
X20320Y15240
X25400Y15240
X30480Y15240
X35560Y15240
X40640Y15240
X45720Y15240
X50800Y15240
X55880Y15240
X48260Y30480
X43180Y30480
X38100Y30480
X33020Y30480
X27940Y30480
X22860Y30480
X53340Y27940
X48260Y27940
X43180Y27940
X38100Y27940
X33020Y27940
X27940Y27940
X22860Y27940
X53340Y30480
X55880Y30480
X50800Y30480
X45720Y30480
X40640Y30480
X35560Y30480
X30480Y30480
X25400Y30480
X20320Y30480
X55880Y27940
X50800Y27940
X45720Y27940
X40640Y27940
X35560Y27940
X95250Y17780
X95250Y20320
X95250Y22860
X95250Y25400
X30480Y27940
X25400Y27940
X20320Y27940
X27940Y22860
X33020Y22860
X38100Y22860
X43180Y22860
X48260Y22860
X53340Y22860
X22860Y25400
X27940Y25400
X33020Y25400
X38100Y25400
X43180Y25400
X48260Y25400
X53340Y25400
X22860Y22860
X20320Y22860
X25400Y22860
X30480Y22860
X35560Y22860
X40640Y22860
X45720Y22860
X50800Y22860
X55880Y22860
X20320Y25400
X25400Y25400
X30480Y25400
X35560Y25400
X40640Y25400
X45720Y25400
X50800Y25400
X55880Y25400
X48260Y20320
X43180Y20320
X38100Y20320
X33020Y20320
X27940Y20320
X22860Y20320
X53340Y17780
X48260Y17780
X43180Y17780
X38100Y17780
X33020Y17780
X27940Y17780
X22860Y17780
X53340Y20320
X55880Y20320
X50800Y20320
X45720Y20320
X40640Y20320
X35560Y20320
X30480Y20320
X25400Y20320
X20320Y20320
X55880Y17780
X50800Y17780
X45720Y17780
X40640Y17780
X35560Y17780
X30480Y17780
X25400Y17780
X20320Y17780
X27940Y33020
X33020Y33020
X38100Y33020
X43180Y33020
X48260Y33020
X53340Y33020
X22860Y35560
X27940Y35560
X33020Y35560
X38100Y35560
X43180Y35560
X48260Y35560
X53340Y35560
X22860Y33020
X20320Y33020
X25400Y33020
X30480Y33020
X35560Y33020
X40640Y33020
X45720Y33020
X50800Y33020
X55880Y33020
X20320Y35560
X25400Y35560
X30480Y35560
X35560Y35560
X40640Y35560
X45720Y35560
X50800Y35560
X55880Y35560
X48260Y40640
X43180Y40640
X38100Y40640
X33020Y40640
X27940Y40640
X22860Y40640
X53340Y38100
X48260Y38100
X43180Y38100
X38100Y38100
X33020Y38100
X27940Y38100
X22860Y38100
X53340Y40640
X55880Y40640
X50800Y40640
X45720Y40640
X40640Y40640
X35560Y40640
X30480Y40640
X25400Y40640
X20320Y40640
X55880Y38100
X50800Y38100
X45720Y38100
X40640Y38100
X35560Y38100
X30480Y38100
X25400Y38100
X20320Y38100
X27940Y43180
X33020Y43180
X38100Y43180
X43180Y43180
X48260Y43180
X53340Y43180
X22860Y45720
X27940Y45720
X33020Y45720
X38100Y45720
X43180Y45720
X48260Y45720
X53340Y45720
X22860Y43180
X20320Y43180
X25400Y43180
X30480Y43180
X35560Y43180
X40640Y43180
X45720Y43180
X50800Y43180
X55880Y43180
X20320Y45720
X25400Y45720
X30480Y45720
X35560Y45720
X40640Y45720
X45720Y45720
X50800Y45720
X55880Y45720
X147701Y9906
X113030Y19050
X147701Y14986
X147701Y17526
X147701Y20066
X147701Y22606
X147701Y25146
X147701Y27686
X117221Y9906
X117221Y12446
X117221Y14986
X117221Y17526
X117221Y20066
X117221Y22606
X117221Y25146
X95250Y35560
X95250Y33020
X95250Y30480
X95250Y27940
X217170Y58420
X217170Y55880
X217170Y53340
X217170Y50800
X6350Y58420
X6350Y55880
X6350Y53340
X6350Y50800
X143891Y9906
X143891Y12446
X143891Y14986
X143891Y17526
X143891Y20066
X143891Y22606
X143891Y25146
X143891Y27686
X121031Y9906
X121031Y12446
X121031Y14986
X121031Y17526
X121031Y20066
X121031Y22606
X121031Y25146
X121031Y27686
X100330Y13335
X100330Y15875
X102870Y13335
X102870Y15875
X105410Y13335
X105410Y15875
X117221Y27686
X100330Y10160
X102870Y10160
X105410Y10160
X107950Y10160
X110490Y10160
X113030Y10160
X147701Y12446
X110490Y19050
X107950Y19050
X105410Y19050
X102870Y19050
X100330Y19050
X113030Y15875
X113030Y13335
X110490Y15875
X110490Y13335
X107950Y15875
X107950Y13335
T4
X55880Y97790
X55880Y100330
X58420Y97790
X58420Y100330
X60960Y97790
X60960Y100330
X63500Y97790
X63500Y100330
X66040Y97790
X66040Y100330
X68580Y97790
X68580Y100330
X71120Y97790
X71120Y100330
X73660Y97790
X73660Y100330
X76200Y97790
X76200Y100330
X78740Y97790
X167640Y100330
X167640Y97790
X165100Y100330
X165100Y97790
X162560Y100330
X162560Y97790
X160020Y100330
X160020Y97790
X157480Y100330
X157480Y97790
X154940Y100330
X154940Y97790
X152400Y100330
X152400Y97790
X149860Y100330
X149860Y97790
X78740Y100330
X81280Y97790
X81280Y100330
X83820Y97790
X83820Y100330
X86360Y97790
X86360Y100330
X88900Y97790
X88900Y100330
X91440Y97790
X91440Y100330
X93980Y97790
X93980Y100330
X96520Y97790
X96520Y100330
X182880Y97790
X182880Y100330
X185420Y97790
X185420Y100330
X187960Y97790
X187960Y100330
X190500Y97790
X190500Y100330
X193040Y97790
X193040Y100330
X195580Y97790
X195580Y100330
X198120Y97790
X198120Y100330
X200660Y97790
X200660Y100330
T5
X193199Y76676
X190659Y76676
X188119Y76676
X185579Y76676
X183039Y76676
X207645Y85408
X207645Y82868
X195739Y76676
X198279Y76676
X200819Y76676
X203359Y76676
X203359Y69056
X219075Y64516
X198279Y69056
X195739Y69056
X193199Y69056
X190659Y69056
X188119Y69056
X185579Y69056
X183039Y69056
X183039Y88106
X185579Y88106
X188119Y88106
X190659Y88106
X193199Y88106
X195739Y88106
X198279Y88106
X200819Y88106
X203359Y88106
X203359Y80486
X193199Y80486
X195739Y80486
X190659Y80486
X188119Y80486
X200819Y80486
X198279Y80486
X185579Y80486
X183039Y80486
X174625Y82868
X174625Y85408
X150019Y76676
X152559Y76676
X155099Y76676
X157639Y76676
X160179Y76676
X162719Y76676
X165259Y76676
X167799Y76676
X170339Y76676
X170339Y69056
X167799Y69056
X165259Y69056
X162719Y69056
X160179Y69056
X157639Y69056
X155099Y69056
X152559Y69056
X150019Y69056
X150019Y88106
X152559Y88106
X155099Y88106
X157639Y88106
X160179Y88106
X162719Y88106
X165259Y88106
X167799Y88106
X170339Y88106
X170339Y80486
X160179Y80486
X162719Y80486
X157639Y80486
X155099Y80486
X167799Y80486
X165259Y80486
X152559Y80486
X150019Y80486
X42545Y82868
X42545Y85408
X17939Y76676
X20479Y76676
X23019Y76676
X25559Y76676
X28099Y76676
X30639Y76676
X33179Y76676
X35719Y76676
X38259Y76676
X38259Y69056
X35719Y69056
X33179Y69056
X30639Y69056
X28099Y69056
X25559Y69056
X23019Y69056
X20479Y69056
X17939Y69056
X17939Y88106
X20479Y88106
X23019Y88106
X25559Y88106
X28099Y88106
X30639Y88106
X33179Y88106
X35719Y88106
X38259Y88106
X38259Y80486
X28099Y80486
X30639Y80486
X25559Y80486
X23019Y80486
X35719Y80486
X33179Y80486
X20479Y80486
X17939Y80486
X75565Y82868
X75565Y85408
X50959Y76676
X53499Y76676
X56039Y76676
X58579Y76676
X61119Y76676
X63659Y76676
X66199Y76676
X68739Y76676
X71279Y76676
X71279Y69056
X68739Y69056
X66199Y69056
X63659Y69056
X61119Y69056
X58579Y69056
X56039Y69056
X53499Y69056
X50959Y69056
X50959Y88106
X53499Y88106
X56039Y88106
X58579Y88106
X61119Y88106
X63659Y88106
X66199Y88106
X68739Y88106
X71279Y88106
X71279Y80486
X61119Y80486
X63659Y80486
X58579Y80486
X56039Y80486
X68739Y80486
X66199Y80486
X53499Y80486
X50959Y80486
X108585Y82868
X108585Y85408
X83979Y76676
X86519Y76676
X89059Y76676
X91599Y76676
X94139Y76676
X96679Y76676
X99219Y76676
X101759Y76676
X104299Y76676
X104299Y69056
X101759Y69056
X99219Y69056
X96679Y69056
X94139Y69056
X91599Y69056
X89059Y69056
X86519Y69056
X83979Y69056
X83979Y88106
X86519Y88106
X89059Y88106
X91599Y88106
X94139Y88106
X96679Y88106
X99219Y88106
X101759Y88106
X104299Y88106
X104299Y80486
X94139Y80486
X96679Y80486
X91599Y80486
X89059Y80486
X101759Y80486
X99219Y80486
X86519Y80486
X83979Y80486
X141605Y82868
X141605Y85408
X116999Y76676
X119539Y76676
X122079Y76676
X124619Y76676
X127159Y76676
X129699Y76676
X132239Y76676
X134779Y76676
X137319Y76676
X137319Y69056
X134779Y69056
X132239Y69056
X129699Y69056
X127159Y69056
X124619Y69056
X122079Y69056
X119539Y69056
X116999Y69056
X116999Y88106
X119539Y88106
X122079Y88106
X124619Y88106
X127159Y88106
X129699Y88106
X132239Y88106
X134779Y88106
X137319Y88106
X137319Y80486
X127159Y80486
X129699Y80486
X124619Y80486
X122079Y80486
X134779Y80486
X132239Y80486
X119539Y80486
X116999Y80486
X216535Y64516
X213995Y64516
X213995Y72136
X216535Y72136
X219075Y72136
X200819Y69056
T6
X76200Y5080
X76200Y7620
X76200Y10160
X76200Y12700
X76200Y15240
X76200Y17780
X76200Y20320
X76200Y22860
X76200Y25400
X76200Y27940
X76200Y30480
X76200Y33020
X76200Y35560
X76200Y38100
X76200Y40640
X91440Y40640
X91440Y38100
X91440Y35560
X91440Y33020
X91440Y30480
X91440Y27940
X91440Y25400
X91440Y22860
X91440Y20320
X91440Y17780
X91440Y15240
X91440Y12700
X91440Y10160
X91440Y7620
X91440Y5080
T7
X120142Y54229
X194437Y53803
X187198Y53825
X158750Y53803
X152527Y54079
X125603Y54356
X92837Y54229
X88646Y54229
X59944Y54356
X55499Y54356
X194627Y63182
X193675Y61912
X192405Y60960
X191294Y59849
X187960Y59690
X186690Y58737
X185420Y57785
X184150Y56832
X161608Y63182
X160655Y61912
X159385Y60960
X158274Y59849
X154940Y59690
X153670Y58737
X152400Y57785
X151130Y58229
X29527Y63182
X28575Y61912
X27305Y60960
X26194Y59849
X22860Y59690
X21590Y58737
X20320Y57785
X19050Y56832
X62547Y63182
X61595Y61912
X60325Y60960
X59214Y59849
X55880Y59690
X54610Y58737
X53340Y57785
X52070Y56832
X95567Y63182
X94615Y61912
X93345Y60960
X92234Y59849
X88900Y59690
X87630Y58737
X86360Y57785
X85090Y56832
X95758Y53594
X105410Y43180
X192382Y53109
X165608Y52949
X161544Y53018
X132715Y53599
X128778Y53599
X99187Y53599
X66040Y53599
X62357Y53571
X33782Y53599
X26670Y54102
X101600Y48260
X191643Y52451
X164846Y52197
X160655Y52324
X131826Y52936
X128082Y52862
X98544Y52809
X95168Y52623
X67310Y52815
X61767Y52750
X34664Y52688
X25908Y53340
X157861Y51267
X159385Y56072
X128587Y63182
X127635Y61912
X126365Y60960
X125254Y59849
X121920Y59690
X120650Y58737
X119380Y57785
X118110Y56832
X103251Y33020
X103505Y44069
X106934Y39497
X61214Y57785
X126111Y57658
X147701Y62865
X156972Y64516
X162687Y51181
X27686Y55880
X29972Y51562
X63754Y51435
X96139Y51308
X99441Y28575
X54610Y55118
X58928Y55118
X87757Y54991
X91948Y54991
X124714Y55118
X153550Y54587
X157988Y54587
X186436Y54483
X193548Y54587
X120904Y55095
X55499Y55880
X59690Y55880
X88646Y55753
X92710Y55753
X125476Y55880
X154305Y55372
X158623Y55372
X187198Y55372
X194310Y55372
X120142Y55753
X80645Y43942
X62611Y36830
X62611Y3937
X150622Y18923
X131699Y43942
X6350Y101600
X6350Y6350
X218440Y6350
X218440Y101600
X111760Y101600
X105791Y34925
X97790Y51181
X213487Y58801
X214757Y54737
X207899Y50419
X200406Y57023
X195707Y50165
X192786Y57912
X159766Y58166
X189738Y51054
X180086Y51308
X173101Y51181
X167259Y51054
X156591Y51435
X140081Y51435
X146431Y51435
X131191Y51435
X123571Y51435
X114681Y51435
X103378Y51308
X90551Y51435
X79121Y51435
X70231Y51435
X46101Y51435
X111760Y6350
X175260Y101600
X40640Y101600
X6350Y45720
X6350Y63500
X218440Y45720
X36576Y51435
M30