G04 EAGLE Gerber RS-274X export*
G75*
%MOMM*%
%FSLAX34Y34*%
%LPD*%
%AMOC8*
5,1,8,0,0,1.08239X$1,22.5*%
G01*
%ADD10C,0.584200*%
%ADD11C,1.524000*%
%ADD12P,1.951982X8X112.500000*%
%ADD13C,1.803400*%
%ADD14C,1.711200*%
%ADD15C,2.298700*%
%ADD16C,2.082800*%
%ADD17C,2.032000*%
%ADD18C,1.981200*%
%ADD19R,1.511200X1.511200*%
%ADD20C,1.511200*%
%ADD21C,0.990600*%


D10*
X806450Y439420D03*
X626110Y368300D03*
X626110Y39370D03*
X1506220Y189230D03*
X1316990Y439420D03*
X63500Y1016000D03*
X63500Y63500D03*
X2184400Y63500D03*
X2184400Y1016000D03*
X1117600Y1016000D03*
X1117600Y63500D03*
X1752600Y1016000D03*
X406400Y1016000D03*
X63500Y457200D03*
X63500Y635000D03*
X2184400Y457200D03*
D11*
X1169988Y798259D02*
X1169988Y811467D01*
X1195388Y811467D02*
X1195388Y798259D01*
X1322388Y798259D02*
X1322388Y811467D01*
X1347788Y811467D02*
X1347788Y798259D01*
X1220788Y798259D02*
X1220788Y811467D01*
X1246188Y811467D02*
X1246188Y798259D01*
X1296988Y798259D02*
X1296988Y811467D01*
X1271588Y811467D02*
X1271588Y798259D01*
X1373188Y798259D02*
X1373188Y811467D01*
X1373188Y874459D02*
X1373188Y887667D01*
X1347788Y887667D02*
X1347788Y874459D01*
X1322388Y874459D02*
X1322388Y887667D01*
X1296988Y887667D02*
X1296988Y874459D01*
X1271588Y874459D02*
X1271588Y887667D01*
X1246188Y887667D02*
X1246188Y874459D01*
X1220788Y874459D02*
X1220788Y887667D01*
X1195388Y887667D02*
X1195388Y874459D01*
X1169988Y874459D02*
X1169988Y887667D01*
X1169988Y697167D02*
X1169988Y683959D01*
X1195388Y683959D02*
X1195388Y697167D01*
X1220788Y697167D02*
X1220788Y683959D01*
X1246188Y683959D02*
X1246188Y697167D01*
X1271588Y697167D02*
X1271588Y683959D01*
X1296988Y683959D02*
X1296988Y697167D01*
X1322388Y697167D02*
X1322388Y683959D01*
X1347788Y683959D02*
X1347788Y697167D01*
X1373188Y697167D02*
X1373188Y683959D01*
X1373188Y760159D02*
X1373188Y773367D01*
X1347788Y773367D02*
X1347788Y760159D01*
X1322388Y760159D02*
X1322388Y773367D01*
X1296988Y773367D02*
X1296988Y760159D01*
X1271588Y760159D02*
X1271588Y773367D01*
X1246188Y773367D02*
X1246188Y760159D01*
X1220788Y760159D02*
X1220788Y773367D01*
X1195388Y773367D02*
X1195388Y760159D01*
X1169988Y760159D02*
X1169988Y773367D01*
D12*
X1416050Y854075D03*
D13*
X1416050Y828675D03*
D11*
X839788Y811467D02*
X839788Y798259D01*
X865188Y798259D02*
X865188Y811467D01*
X992188Y811467D02*
X992188Y798259D01*
X1017588Y798259D02*
X1017588Y811467D01*
X890588Y811467D02*
X890588Y798259D01*
X915988Y798259D02*
X915988Y811467D01*
X966788Y811467D02*
X966788Y798259D01*
X941388Y798259D02*
X941388Y811467D01*
X1042988Y811467D02*
X1042988Y798259D01*
X1042988Y874459D02*
X1042988Y887667D01*
X1017588Y887667D02*
X1017588Y874459D01*
X992188Y874459D02*
X992188Y887667D01*
X966788Y887667D02*
X966788Y874459D01*
X941388Y874459D02*
X941388Y887667D01*
X915988Y887667D02*
X915988Y874459D01*
X890588Y874459D02*
X890588Y887667D01*
X865188Y887667D02*
X865188Y874459D01*
X839788Y874459D02*
X839788Y887667D01*
X839788Y697167D02*
X839788Y683959D01*
X865188Y683959D02*
X865188Y697167D01*
X890588Y697167D02*
X890588Y683959D01*
X915988Y683959D02*
X915988Y697167D01*
X941388Y697167D02*
X941388Y683959D01*
X966788Y683959D02*
X966788Y697167D01*
X992188Y697167D02*
X992188Y683959D01*
X1017588Y683959D02*
X1017588Y697167D01*
X1042988Y697167D02*
X1042988Y683959D01*
X1042988Y760159D02*
X1042988Y773367D01*
X1017588Y773367D02*
X1017588Y760159D01*
X992188Y760159D02*
X992188Y773367D01*
X966788Y773367D02*
X966788Y760159D01*
X941388Y760159D02*
X941388Y773367D01*
X915988Y773367D02*
X915988Y760159D01*
X890588Y760159D02*
X890588Y773367D01*
X865188Y773367D02*
X865188Y760159D01*
X839788Y760159D02*
X839788Y773367D01*
D12*
X1085850Y854075D03*
D13*
X1085850Y828675D03*
D11*
X509588Y811467D02*
X509588Y798259D01*
X534988Y798259D02*
X534988Y811467D01*
X661988Y811467D02*
X661988Y798259D01*
X687388Y798259D02*
X687388Y811467D01*
X560388Y811467D02*
X560388Y798259D01*
X585788Y798259D02*
X585788Y811467D01*
X636588Y811467D02*
X636588Y798259D01*
X611188Y798259D02*
X611188Y811467D01*
X712788Y811467D02*
X712788Y798259D01*
X712788Y874459D02*
X712788Y887667D01*
X687388Y887667D02*
X687388Y874459D01*
X661988Y874459D02*
X661988Y887667D01*
X636588Y887667D02*
X636588Y874459D01*
X611188Y874459D02*
X611188Y887667D01*
X585788Y887667D02*
X585788Y874459D01*
X560388Y874459D02*
X560388Y887667D01*
X534988Y887667D02*
X534988Y874459D01*
X509588Y874459D02*
X509588Y887667D01*
X509588Y697167D02*
X509588Y683959D01*
X534988Y683959D02*
X534988Y697167D01*
X560388Y697167D02*
X560388Y683959D01*
X585788Y683959D02*
X585788Y697167D01*
X611188Y697167D02*
X611188Y683959D01*
X636588Y683959D02*
X636588Y697167D01*
X661988Y697167D02*
X661988Y683959D01*
X687388Y683959D02*
X687388Y697167D01*
X712788Y697167D02*
X712788Y683959D01*
X712788Y760159D02*
X712788Y773367D01*
X687388Y773367D02*
X687388Y760159D01*
X661988Y760159D02*
X661988Y773367D01*
X636588Y773367D02*
X636588Y760159D01*
X611188Y760159D02*
X611188Y773367D01*
X585788Y773367D02*
X585788Y760159D01*
X560388Y760159D02*
X560388Y773367D01*
X534988Y773367D02*
X534988Y760159D01*
X509588Y760159D02*
X509588Y773367D01*
D12*
X755650Y854075D03*
D13*
X755650Y828675D03*
D11*
X179388Y811467D02*
X179388Y798259D01*
X204788Y798259D02*
X204788Y811467D01*
X331788Y811467D02*
X331788Y798259D01*
X357188Y798259D02*
X357188Y811467D01*
X230188Y811467D02*
X230188Y798259D01*
X255588Y798259D02*
X255588Y811467D01*
X306388Y811467D02*
X306388Y798259D01*
X280988Y798259D02*
X280988Y811467D01*
X382588Y811467D02*
X382588Y798259D01*
X382588Y874459D02*
X382588Y887667D01*
X357188Y887667D02*
X357188Y874459D01*
X331788Y874459D02*
X331788Y887667D01*
X306388Y887667D02*
X306388Y874459D01*
X280988Y874459D02*
X280988Y887667D01*
X255588Y887667D02*
X255588Y874459D01*
X230188Y874459D02*
X230188Y887667D01*
X204788Y887667D02*
X204788Y874459D01*
X179388Y874459D02*
X179388Y887667D01*
X179388Y697167D02*
X179388Y683959D01*
X204788Y683959D02*
X204788Y697167D01*
X230188Y697167D02*
X230188Y683959D01*
X255588Y683959D02*
X255588Y697167D01*
X280988Y697167D02*
X280988Y683959D01*
X306388Y683959D02*
X306388Y697167D01*
X331788Y697167D02*
X331788Y683959D01*
X357188Y683959D02*
X357188Y697167D01*
X382588Y697167D02*
X382588Y683959D01*
X382588Y760159D02*
X382588Y773367D01*
X357188Y773367D02*
X357188Y760159D01*
X331788Y760159D02*
X331788Y773367D01*
X306388Y773367D02*
X306388Y760159D01*
X280988Y760159D02*
X280988Y773367D01*
X255588Y773367D02*
X255588Y760159D01*
X230188Y760159D02*
X230188Y773367D01*
X204788Y773367D02*
X204788Y760159D01*
X179388Y760159D02*
X179388Y773367D01*
D12*
X425450Y854075D03*
D13*
X425450Y828675D03*
D14*
X965200Y1003300D03*
X965200Y977900D03*
X939800Y1003300D03*
X939800Y977900D03*
X914400Y1003300D03*
X914400Y977900D03*
X889000Y1003300D03*
X889000Y977900D03*
X863600Y1003300D03*
X863600Y977900D03*
X838200Y1003300D03*
X838200Y977900D03*
X812800Y1003300D03*
X812800Y977900D03*
X787400Y1003300D03*
X787400Y977900D03*
X762000Y1003300D03*
X762000Y977900D03*
X736600Y1003300D03*
X736600Y977900D03*
X711200Y1003300D03*
X711200Y977900D03*
X685800Y1003300D03*
X685800Y977900D03*
X660400Y1003300D03*
X660400Y977900D03*
X635000Y1003300D03*
X635000Y977900D03*
X609600Y1003300D03*
X609600Y977900D03*
X584200Y1003300D03*
X584200Y977900D03*
X558800Y1003300D03*
X558800Y977900D03*
D11*
X1500188Y811467D02*
X1500188Y798259D01*
X1525588Y798259D02*
X1525588Y811467D01*
X1652588Y811467D02*
X1652588Y798259D01*
X1677988Y798259D02*
X1677988Y811467D01*
X1550988Y811467D02*
X1550988Y798259D01*
X1576388Y798259D02*
X1576388Y811467D01*
X1627188Y811467D02*
X1627188Y798259D01*
X1601788Y798259D02*
X1601788Y811467D01*
X1703388Y811467D02*
X1703388Y798259D01*
X1703388Y874459D02*
X1703388Y887667D01*
X1677988Y887667D02*
X1677988Y874459D01*
X1652588Y874459D02*
X1652588Y887667D01*
X1627188Y887667D02*
X1627188Y874459D01*
X1601788Y874459D02*
X1601788Y887667D01*
X1576388Y887667D02*
X1576388Y874459D01*
X1550988Y874459D02*
X1550988Y887667D01*
X1525588Y887667D02*
X1525588Y874459D01*
X1500188Y874459D02*
X1500188Y887667D01*
X1500188Y697167D02*
X1500188Y683959D01*
X1525588Y683959D02*
X1525588Y697167D01*
X1550988Y697167D02*
X1550988Y683959D01*
X1576388Y683959D02*
X1576388Y697167D01*
X1601788Y697167D02*
X1601788Y683959D01*
X1627188Y683959D02*
X1627188Y697167D01*
X1652588Y697167D02*
X1652588Y683959D01*
X1677988Y683959D02*
X1677988Y697167D01*
X1703388Y697167D02*
X1703388Y683959D01*
X1703388Y760159D02*
X1703388Y773367D01*
X1677988Y773367D02*
X1677988Y760159D01*
X1652588Y760159D02*
X1652588Y773367D01*
X1627188Y773367D02*
X1627188Y760159D01*
X1601788Y760159D02*
X1601788Y773367D01*
X1576388Y773367D02*
X1576388Y760159D01*
X1550988Y760159D02*
X1550988Y773367D01*
X1525588Y773367D02*
X1525588Y760159D01*
X1500188Y760159D02*
X1500188Y773367D01*
D12*
X1746250Y854075D03*
D13*
X1746250Y828675D03*
D14*
X1676400Y1003300D03*
X1676400Y977900D03*
X1651000Y1003300D03*
X1651000Y977900D03*
X1625600Y1003300D03*
X1625600Y977900D03*
X1600200Y1003300D03*
X1600200Y977900D03*
X1574800Y1003300D03*
X1574800Y977900D03*
X1549400Y1003300D03*
X1549400Y977900D03*
X1524000Y1003300D03*
X1524000Y977900D03*
X1498600Y1003300D03*
X1498600Y977900D03*
D11*
X1830388Y811467D02*
X1830388Y798259D01*
X1855788Y798259D02*
X1855788Y811467D01*
X1982788Y811467D02*
X1982788Y798259D01*
X2008188Y798259D02*
X2008188Y811467D01*
X1881188Y811467D02*
X1881188Y798259D01*
X1906588Y798259D02*
X1906588Y811467D01*
X1957388Y811467D02*
X1957388Y798259D01*
X1931988Y798259D02*
X1931988Y811467D01*
X2033588Y811467D02*
X2033588Y798259D01*
X2033588Y874459D02*
X2033588Y887667D01*
X2008188Y887667D02*
X2008188Y874459D01*
X1982788Y874459D02*
X1982788Y887667D01*
X1957388Y887667D02*
X1957388Y874459D01*
X1931988Y874459D02*
X1931988Y887667D01*
X1906588Y887667D02*
X1906588Y874459D01*
X1881188Y874459D02*
X1881188Y887667D01*
X1855788Y887667D02*
X1855788Y874459D01*
X1830388Y874459D02*
X1830388Y887667D01*
X1830388Y697167D02*
X1830388Y683959D01*
X1855788Y683959D02*
X1855788Y697167D01*
X1881188Y697167D02*
X1881188Y683959D01*
X1906588Y683959D02*
X1906588Y697167D01*
X1931988Y697167D02*
X1931988Y683959D01*
X1957388Y683959D02*
X1957388Y697167D01*
X1982788Y697167D02*
X1982788Y683959D01*
X2008188Y683959D02*
X2008188Y697167D01*
X2033588Y697167D02*
X2033588Y683959D01*
X2033588Y760159D02*
X2033588Y773367D01*
X2008188Y773367D02*
X2008188Y760159D01*
X1982788Y760159D02*
X1982788Y773367D01*
X1957388Y773367D02*
X1957388Y760159D01*
X1931988Y760159D02*
X1931988Y773367D01*
X1906588Y773367D02*
X1906588Y760159D01*
X1881188Y760159D02*
X1881188Y773367D01*
X1855788Y773367D02*
X1855788Y760159D01*
X1830388Y760159D02*
X1830388Y773367D01*
D12*
X2076450Y854075D03*
D13*
X2076450Y828675D03*
D14*
X2006600Y1003300D03*
X2006600Y977900D03*
X1981200Y1003300D03*
X1981200Y977900D03*
X1955800Y1003300D03*
X1955800Y977900D03*
X1930400Y1003300D03*
X1930400Y977900D03*
X1905000Y1003300D03*
X1905000Y977900D03*
X1879600Y1003300D03*
X1879600Y977900D03*
X1854200Y1003300D03*
X1854200Y977900D03*
X1828800Y1003300D03*
X1828800Y977900D03*
D15*
X113348Y867410D02*
X92393Y867410D01*
X92393Y816610D02*
X113348Y816610D01*
X2135823Y819150D02*
X2156778Y819150D01*
X2156778Y869950D02*
X2135823Y869950D01*
D16*
X2171700Y584200D03*
X2171700Y558800D03*
X2171700Y533400D03*
X2171700Y508000D03*
X63500Y584200D03*
X63500Y558800D03*
X63500Y533400D03*
X63500Y508000D03*
D17*
X1429766Y99060D02*
X1448054Y99060D01*
X1448054Y124460D02*
X1429766Y124460D01*
X1429766Y149860D02*
X1448054Y149860D01*
X1448054Y175260D02*
X1429766Y175260D01*
X1429766Y200660D02*
X1448054Y200660D01*
X1448054Y226060D02*
X1429766Y226060D01*
X1429766Y251460D02*
X1448054Y251460D01*
X1448054Y276860D02*
X1429766Y276860D01*
X1219454Y99060D02*
X1201166Y99060D01*
X1201166Y124460D02*
X1219454Y124460D01*
X1219454Y149860D02*
X1201166Y149860D01*
X1201166Y175260D02*
X1219454Y175260D01*
X1219454Y200660D02*
X1201166Y200660D01*
X1201166Y226060D02*
X1219454Y226060D01*
X1219454Y251460D02*
X1201166Y251460D01*
X1201166Y276860D02*
X1219454Y276860D01*
D16*
X1003300Y133350D03*
X1003300Y158750D03*
X1028700Y133350D03*
X1028700Y158750D03*
X1054100Y133350D03*
X1054100Y158750D03*
X1079500Y133350D03*
X1079500Y158750D03*
X1104900Y133350D03*
X1104900Y158750D03*
X1130300Y133350D03*
X1130300Y158750D03*
X1003300Y190500D03*
X1028700Y190500D03*
X1054100Y190500D03*
X1079500Y190500D03*
X1104900Y190500D03*
X1477010Y124460D03*
X1130300Y101600D03*
X1104900Y101600D03*
X1079500Y101600D03*
X1054100Y101600D03*
X1028700Y101600D03*
X1003300Y101600D03*
X1172210Y276860D03*
X1172210Y251460D03*
X1172210Y226060D03*
X1172210Y200660D03*
X1172210Y175260D03*
X1172210Y149860D03*
X1172210Y124460D03*
X1172210Y99060D03*
X1477010Y276860D03*
X1477010Y251460D03*
X1477010Y226060D03*
X1477010Y200660D03*
X1477010Y175260D03*
X1477010Y149860D03*
X1130300Y190500D03*
X1477010Y99060D03*
X558800Y457200D03*
X508000Y457200D03*
X457200Y457200D03*
X406400Y457200D03*
X355600Y457200D03*
X304800Y457200D03*
X254000Y457200D03*
X203200Y457200D03*
X558800Y431800D03*
X508000Y431800D03*
X457200Y431800D03*
X406400Y431800D03*
X355600Y431800D03*
X304800Y431800D03*
X254000Y431800D03*
X203200Y431800D03*
X228600Y431800D03*
X533400Y457200D03*
X482600Y457200D03*
X431800Y457200D03*
X381000Y457200D03*
X330200Y457200D03*
X279400Y457200D03*
X228600Y457200D03*
X533400Y431800D03*
X482600Y431800D03*
X431800Y431800D03*
X381000Y431800D03*
X330200Y431800D03*
X279400Y431800D03*
X203200Y381000D03*
X254000Y381000D03*
X304800Y381000D03*
X355600Y381000D03*
X406400Y381000D03*
X457200Y381000D03*
X508000Y381000D03*
X558800Y381000D03*
X203200Y406400D03*
X254000Y406400D03*
X304800Y406400D03*
X355600Y406400D03*
X406400Y406400D03*
X457200Y406400D03*
X508000Y406400D03*
X558800Y406400D03*
X533400Y406400D03*
X228600Y381000D03*
X279400Y381000D03*
X330200Y381000D03*
X381000Y381000D03*
X431800Y381000D03*
X482600Y381000D03*
X533400Y381000D03*
X228600Y406400D03*
X279400Y406400D03*
X330200Y406400D03*
X381000Y406400D03*
X431800Y406400D03*
X482600Y406400D03*
X558800Y355600D03*
X508000Y355600D03*
X457200Y355600D03*
X406400Y355600D03*
X355600Y355600D03*
X304800Y355600D03*
X254000Y355600D03*
X203200Y355600D03*
X558800Y330200D03*
X508000Y330200D03*
X457200Y330200D03*
X406400Y330200D03*
X355600Y330200D03*
X304800Y330200D03*
X254000Y330200D03*
X203200Y330200D03*
X228600Y330200D03*
X533400Y355600D03*
X482600Y355600D03*
X431800Y355600D03*
X381000Y355600D03*
X330200Y355600D03*
X279400Y355600D03*
X228600Y355600D03*
X533400Y330200D03*
X482600Y330200D03*
X431800Y330200D03*
X381000Y330200D03*
X330200Y330200D03*
X279400Y330200D03*
X203200Y177800D03*
X254000Y177800D03*
X304800Y177800D03*
X355600Y177800D03*
X406400Y177800D03*
X457200Y177800D03*
X508000Y177800D03*
X558800Y177800D03*
X203200Y203200D03*
X254000Y203200D03*
X304800Y203200D03*
X355600Y203200D03*
X406400Y203200D03*
X457200Y203200D03*
X508000Y203200D03*
X558800Y203200D03*
X533400Y203200D03*
X228600Y177800D03*
X279400Y177800D03*
X330200Y177800D03*
X381000Y177800D03*
X431800Y177800D03*
X482600Y177800D03*
X533400Y177800D03*
X228600Y203200D03*
X279400Y203200D03*
X330200Y203200D03*
X381000Y203200D03*
X431800Y203200D03*
X482600Y203200D03*
X558800Y254000D03*
X508000Y254000D03*
X457200Y254000D03*
X406400Y254000D03*
X355600Y254000D03*
X304800Y254000D03*
X254000Y254000D03*
X203200Y254000D03*
X558800Y228600D03*
X508000Y228600D03*
X457200Y228600D03*
X406400Y228600D03*
X355600Y228600D03*
X304800Y228600D03*
X254000Y228600D03*
X203200Y228600D03*
X228600Y228600D03*
X533400Y254000D03*
X482600Y254000D03*
X431800Y254000D03*
X381000Y254000D03*
X330200Y254000D03*
X279400Y254000D03*
X228600Y254000D03*
X533400Y228600D03*
X482600Y228600D03*
X431800Y228600D03*
X381000Y228600D03*
X330200Y228600D03*
X279400Y228600D03*
X203200Y279400D03*
X254000Y279400D03*
X304800Y279400D03*
X355600Y279400D03*
X406400Y279400D03*
X457200Y279400D03*
X508000Y279400D03*
X558800Y279400D03*
X203200Y304800D03*
X254000Y304800D03*
X304800Y304800D03*
X355600Y304800D03*
X406400Y304800D03*
X457200Y304800D03*
X508000Y304800D03*
X558800Y304800D03*
X533400Y304800D03*
X228600Y279400D03*
X279400Y279400D03*
X330200Y279400D03*
X381000Y279400D03*
X431800Y279400D03*
X482600Y279400D03*
X533400Y279400D03*
X228600Y304800D03*
X279400Y304800D03*
X330200Y304800D03*
X381000Y304800D03*
X431800Y304800D03*
X482600Y304800D03*
X558800Y152400D03*
X508000Y152400D03*
X457200Y152400D03*
X406400Y152400D03*
X355600Y152400D03*
X304800Y152400D03*
X254000Y152400D03*
X203200Y152400D03*
X558800Y127000D03*
X508000Y127000D03*
X457200Y127000D03*
X406400Y127000D03*
X355600Y127000D03*
X304800Y127000D03*
X254000Y127000D03*
X203200Y127000D03*
X228600Y127000D03*
X533400Y152400D03*
X482600Y152400D03*
X431800Y152400D03*
X381000Y152400D03*
X330200Y152400D03*
X279400Y152400D03*
X228600Y152400D03*
X533400Y127000D03*
X482600Y127000D03*
X431800Y127000D03*
X381000Y127000D03*
X330200Y127000D03*
X279400Y127000D03*
X203200Y76200D03*
X254000Y76200D03*
X304800Y76200D03*
X355600Y76200D03*
X406400Y76200D03*
X457200Y76200D03*
X508000Y76200D03*
X558800Y76200D03*
X203200Y101600D03*
X254000Y101600D03*
X304800Y101600D03*
X355600Y101600D03*
X406400Y101600D03*
X457200Y101600D03*
X508000Y101600D03*
X558800Y101600D03*
X533400Y101600D03*
X228600Y76200D03*
X279400Y76200D03*
X330200Y76200D03*
X381000Y76200D03*
X431800Y76200D03*
X482600Y76200D03*
X533400Y76200D03*
X228600Y101600D03*
X279400Y101600D03*
X330200Y101600D03*
X381000Y101600D03*
X431800Y101600D03*
X482600Y101600D03*
X558800Y50800D03*
X508000Y50800D03*
X457200Y50800D03*
X406400Y50800D03*
X355600Y50800D03*
X304800Y50800D03*
X254000Y50800D03*
X203200Y50800D03*
X558800Y25400D03*
X508000Y25400D03*
X457200Y25400D03*
X406400Y25400D03*
X355600Y25400D03*
X304800Y25400D03*
X254000Y25400D03*
X203200Y25400D03*
X228600Y25400D03*
X533400Y50800D03*
X482600Y50800D03*
X431800Y50800D03*
X381000Y50800D03*
X330200Y50800D03*
X279400Y50800D03*
X228600Y50800D03*
X533400Y25400D03*
X482600Y25400D03*
X431800Y25400D03*
X381000Y25400D03*
X330200Y25400D03*
X279400Y25400D03*
D18*
X914400Y25400D03*
D19*
X914400Y50800D03*
D20*
X914400Y76200D03*
X914400Y101600D03*
X914400Y127000D03*
X914400Y152400D03*
X914400Y177800D03*
X914400Y203200D03*
X914400Y228600D03*
X914400Y254000D03*
X914400Y279400D03*
X914400Y304800D03*
X914400Y330200D03*
X914400Y355600D03*
X914400Y381000D03*
X914400Y406400D03*
X762000Y406400D03*
X762000Y381000D03*
X762000Y355600D03*
X762000Y330200D03*
X762000Y304800D03*
X762000Y279400D03*
X762000Y254000D03*
X762000Y228600D03*
X762000Y203200D03*
X762000Y177800D03*
X762000Y152400D03*
X762000Y127000D03*
X762000Y101600D03*
X762000Y76200D03*
X762000Y50800D03*
D18*
X762000Y25400D03*
X762000Y431800D03*
X914400Y431800D03*
D16*
X723900Y330200D03*
X723900Y304800D03*
X723900Y279400D03*
X723900Y254000D03*
X723900Y228600D03*
X723900Y203200D03*
X723900Y177800D03*
X723900Y152400D03*
X723900Y127000D03*
X723900Y101600D03*
X723900Y76200D03*
X723900Y50800D03*
X952500Y50800D03*
X952500Y76200D03*
X952500Y101600D03*
X952500Y127000D03*
X952500Y152400D03*
X952500Y177800D03*
X952500Y203200D03*
X952500Y228600D03*
X952500Y254000D03*
X952500Y279400D03*
X952500Y304800D03*
X952500Y330200D03*
X952500Y355600D03*
D11*
X2190750Y714756D02*
X2190750Y727964D01*
X2165350Y727964D02*
X2165350Y714756D01*
X2139950Y714756D02*
X2139950Y727964D01*
X2139950Y651764D02*
X2139950Y638556D01*
X2165350Y638556D02*
X2165350Y651764D01*
X2190750Y651764D02*
X2190750Y638556D01*
D21*
X365760Y514350D03*
X461010Y514350D03*
X702310Y514350D03*
X791210Y514350D03*
X905510Y514350D03*
X1033780Y513080D03*
X1146810Y514350D03*
X1235710Y514350D03*
X1311910Y514350D03*
X1464310Y514350D03*
X1400810Y514350D03*
X1565910Y514350D03*
X1672590Y510540D03*
X1731010Y511810D03*
X1800860Y513080D03*
X1897380Y510540D03*
X1597660Y581660D03*
X1927860Y579120D03*
X1957070Y501650D03*
X2004060Y570230D03*
X2078990Y504190D03*
X2147570Y547370D03*
X2134870Y588010D03*
X977900Y511810D03*
X1057910Y349250D03*
X994410Y285750D03*
X961390Y513080D03*
X637540Y514350D03*
X299720Y515620D03*
X276860Y558800D03*
X1626870Y511810D03*
X1569720Y645160D03*
X1477010Y628650D03*
X1261110Y576580D03*
X612140Y577850D03*
X1069340Y394970D03*
X1035050Y440690D03*
X1032510Y330200D03*
X1181100Y568325D03*
X1193800Y577850D03*
X1206500Y587375D03*
X1219200Y596900D03*
X1252538Y598488D03*
X1263650Y609600D03*
X1276350Y619125D03*
X1285875Y631825D03*
X1593850Y560724D03*
X1578610Y512672D03*
X259080Y533400D03*
X346636Y526876D03*
X617666Y527496D03*
X673100Y528146D03*
X951684Y526234D03*
X985436Y528094D03*
X1280822Y528618D03*
X1318260Y529364D03*
X1606550Y523240D03*
X1648460Y521970D03*
X1916430Y524510D03*
X1016000Y482600D03*
X266700Y541020D03*
X337820Y535992D03*
X623570Y535714D03*
X660400Y535992D03*
X991870Y535992D03*
X1287780Y535992D03*
X1327150Y535992D03*
X1615440Y530182D03*
X1656080Y529492D03*
X1923820Y531086D03*
X1054100Y431800D03*
X957580Y535940D03*
X850900Y568325D03*
X863600Y577850D03*
X876300Y587375D03*
X889000Y596900D03*
X922338Y598488D03*
X933450Y609600D03*
X946150Y619125D03*
X955675Y631825D03*
X520700Y568325D03*
X533400Y577850D03*
X546100Y587375D03*
X558800Y596900D03*
X592138Y598488D03*
X603250Y609600D03*
X615950Y619125D03*
X625475Y631825D03*
X190500Y568325D03*
X203200Y577850D03*
X215900Y587375D03*
X228600Y596900D03*
X261938Y598488D03*
X273050Y609600D03*
X285750Y619125D03*
X295275Y631825D03*
X1511300Y582295D03*
X1524000Y577850D03*
X1536700Y587375D03*
X1549400Y596900D03*
X1582738Y598488D03*
X1593850Y609600D03*
X1606550Y619125D03*
X1616075Y631825D03*
X1841500Y568325D03*
X1854200Y577850D03*
X1866900Y587375D03*
X1879600Y596900D03*
X1912938Y598488D03*
X1924050Y609600D03*
X1936750Y619125D03*
X1946275Y631825D03*
X554990Y543560D03*
X599440Y543560D03*
X886460Y542290D03*
X928370Y542290D03*
X1256030Y543560D03*
X1525270Y540794D03*
X1587500Y538028D03*
X1871980Y538254D03*
X1944370Y538028D03*
X1201420Y542290D03*
X546100Y551180D03*
X589280Y551180D03*
X877570Y549910D03*
X919480Y549910D03*
X1247140Y551180D03*
X1535504Y545874D03*
X1579880Y545874D03*
X1864360Y544830D03*
X1935480Y545874D03*
X1209040Y550954D03*
X554990Y558800D03*
X596900Y558800D03*
X886460Y557530D03*
X927100Y557530D03*
X1254760Y558800D03*
X1543050Y553720D03*
X1586230Y553720D03*
X1871980Y553720D03*
X1943100Y553720D03*
X1201420Y557530D03*
M02*
